<svg width="48" height="48" viewBox="0 0 48 48"  xmlns="http://www.w3.org/2000/svg">
<path d="M29.7546 17.744C38.1841 13.709 44.7362 12.327 44.7362 12.327C36.7485 15.4118 30.9816 19.9157 25.4969 25.7892C25.7669 25.6535 31.1534 23.6175 32.7607 28.1707C34.2699 32.4772 24.4785 40.5841 27.9018 47.9507C39.3006 46.0751 48 36.1296 48 24.1358C47.9877 10.8093 37.2515 0 24 0C10.7485 0 0 10.8093 0 24.1358C0 29.2813 1.60736 34.0443 4.33129 37.9682C11.7301 27.998 21.6196 21.6309 29.7546 17.744Z" />
<path d="M22.6014 28.8374C17.4971 34.6863 13.7179 40.6338 11.3989 44.6688C14.1229 46.3593 17.2026 47.5192 20.5155 48.0004C19.9879 45.3721 19.7916 40.0539 24.7977 34.3901C31.0431 27.332 24.1474 26.9988 22.6014 28.8374Z"/>
</svg>
