<svg width="32" height="32" xmlns="http://www.w3.org/2000/svg"><path d="M28.374 24.981a13.356 13.356 0 00-2.879-4.268 13.415 13.415 0 00-4.268-2.878c-.014-.007-.028-.01-.042-.018a8.856 8.856 0 00-5.186-16.036 8.856 8.856 0 00-8.857 8.857 8.85 8.85 0 003.671 7.182c-.014.008-.028.011-.043.018a13.3 13.3 0 00-4.267 2.879 13.415 13.415 0 00-2.879 4.268 13.275 13.275 0 00-1.054 4.932.286.286 0 00.286.293H5a.285.285 0 00.286-.279 10.648 10.648 0 013.135-7.296A10.644 10.644 0 0116 19.495c2.864 0 5.553 1.115 7.579 3.14a10.648 10.648 0 013.135 7.296.283.283 0 00.286.279h2.143a.286.286 0 00.285-.293 13.308 13.308 0 00-1.053-4.936zm-12.375-8.2a6.101 6.101 0 01-4.343-1.8 6.103 6.103 0 01-1.8-4.343c0-1.639.64-3.182 1.8-4.342A6.103 6.103 0 0116 4.496c1.64 0 3.182.639 4.343 1.8a6.103 6.103 0 011.8 4.342c0 1.64-.64 3.182-1.8 4.343a6.103 6.103 0 01-4.343 1.8z"/></svg>